<svg xmlns="http://www.w3.org/2000/svg" xmlns:xlink="http://www.w3.org/1999/xlink" version="1.1" x="0px" y="0px" viewBox="0 0 32 40" enable-background="new 0 0 32 32" xml:space="preserve"><g><g><path d="M30.97,29.68l-0.87-6.8c-0.03-0.22-0.13-0.42-0.28-0.58L15.3,7.78c-0.15,0.3-0.34,0.58-0.59,0.83L14,9.32l-1.41,1.41    l-1.86,1.86L9.32,14l-0.71,0.71c-0.25,0.25-0.53,0.44-0.83,0.59L22.3,29.82c0.16,0.15,0.36,0.25,0.58,0.28l6.99,0.89    C29.92,31,29.96,31,30,31c0.01,0,0.01,0,0.02,0c0.55,0,1-0.45,1-1C31.02,29.89,31,29.78,30.97,29.68z"/><path d="M12.59,7.91L13.3,7.2c0.39-0.39,0.39-1.03,0-1.42l-2-2L9.44,1.92c-1.19-1.19-3.28-1.19-4.47,0L1.92,4.97    c-1.23,1.23-1.23,3.24,0,4.47l1.86,1.86l2,2c0.2,0.19,0.45,0.29,0.71,0.29S7,13.49,7.2,13.3l0.71-0.71L12.59,7.91z"/></g></g><text x="0" y="47" fill="#000000" font-size="5px" font-weight="bold" font-family="'Helvetica Neue', Helvetica, Arial-Unicode, Arial, Sans-serif">Created by Icon Lauk</text><text x="0" y="52" fill="#000000" font-size="5px" font-weight="bold" font-family="'Helvetica Neue', Helvetica, Arial-Unicode, Arial, Sans-serif">from the Noun Project</text></svg>