<svg xmlns="http://www.w3.org/2000/svg" xmlns:xlink="http://www.w3.org/1999/xlink" version="1.1" x="0px" y="0px" viewBox="0 0 100 125" style="enable-background:new 0 0 100 100;" xml:space="preserve"><g><g><path d="M14.4,69h12.1c0.7,0,1.1-0.5,1.1-1.1V39.4c0-0.7-0.5-1.1-1.1-1.1H14.4c-0.7,0-1.1,0.5-1.1,1.1v28.5    C13.1,68.5,13.8,69,14.4,69z"/></g><g><path d="M34.1,69h12.1c0.7,0,1.1-0.5,1.1-1.1V43.9c0-0.7-0.5-1.1-1.1-1.1H34.1c-0.7,0-1.1,0.5-1.1,1.1v23.9    C32.9,68.5,33.4,69,34.1,69z"/></g><g><path d="M53.7,69h12.1c0.7,0,1.1-0.5,1.1-1.1v-36c0-0.7-0.5-1.1-1.1-1.1H53.7c-0.7,0-1.1,0.5-1.1,1.1v36C52.6,68.5,53,69,53.7,69z    "/></g><g><path d="M73.5,69h12.1c0.7,0,1.1-0.5,1.1-1.1V25.3c0-0.7-0.5-1.1-1.1-1.1H73.5c-0.7,0-1.1,0.5-1.1,1.1v42.6    C72.2,68.5,72.8,69,73.5,69z"/></g></g><g><path d="M95,77.5H5c-0.9,0-1.6-0.7-1.6-1.6s0.7-1.6,1.6-1.6h90c0.9,0,1.6,0.7,1.6,1.6S95.9,77.5,95,77.5z"/></g><text x="0" y="115" fill="#000000" font-size="5px" font-weight="bold" font-family="'Helvetica Neue', Helvetica, Arial-Unicode, Arial, Sans-serif">Created by Sharon Showalter</text><text x="0" y="120" fill="#000000" font-size="5px" font-weight="bold" font-family="'Helvetica Neue', Helvetica, Arial-Unicode, Arial, Sans-serif">from the Noun Project</text></svg>