<?xml version="1.0" encoding="utf-8"?>
<!-- Generator: Adobe Illustrator 23.1.1, SVG Export Plug-In . SVG Version: 6.00 Build 0)  -->
<svg version="1.1" id="Capa_1" xmlns="http://www.w3.org/2000/svg" xmlns:xlink="http://www.w3.org/1999/xlink" x="0px" y="0px"
	 viewBox="0 0 97.3 97.3" style="enable-background:new 0 0 97.3 97.3;" xml:space="preserve">
<title>NOUN_Sign</title>
<path d="M81.4,94.5L48.6,61.8L15.8,94.5c-3.6,3.6-9.5,3.6-13.1,0c0,0,0,0,0,0l0,0c-3.6-3.6-3.6-9.5,0-13.1c0,0,0,0,0,0l32.8-32.8
	L2.7,15.8c-3.6-3.6-3.6-9.5,0-13.1c0,0,0,0,0,0l0,0c3.6-3.6,9.5-3.6,13.1,0c0,0,0,0,0,0l32.8,32.8L81.4,2.7c3.6-3.6,9.5-3.6,13.1,0
	c0,0,0,0,0,0l0,0c3.6,3.6,3.6,9.5,0,13.1c0,0,0,0,0,0L61.8,48.6l32.8,32.8c3.6,3.6,3.6,9.5,0,13.1c0,0,0,0,0,0l0,0
	C90.9,98.2,85.1,98.2,81.4,94.5C81.5,94.6,81.4,94.6,81.4,94.5z"/>
</svg>
