<?xml version="1.0" encoding="utf-8"?>
<!-- Generator: Adobe Illustrator 23.1.1, SVG Export Plug-In . SVG Version: 6.00 Build 0)  -->
<svg version="1.1" id="Capa_1" xmlns="http://www.w3.org/2000/svg" xmlns:xlink="http://www.w3.org/1999/xlink" x="0px" y="0px"
	 viewBox="0 0 32 31" style="enable-background:new 0 0 32 31;" xml:space="preserve">
<g>
	<g>
		<path d="M31,29.7l-0.9-6.8c0-0.2-0.1-0.4-0.3-0.6L15.3,7.8c-0.1,0.3-0.3,0.6-0.6,0.8L14,9.3l-1.4,1.4l-1.9,1.9L9.3,14l-0.7,0.7
			c-0.2,0.2-0.5,0.4-0.8,0.6l14.5,14.5c0.2,0.1,0.4,0.2,0.6,0.3l7,0.9c0.1,0,0.1,0,0.1,0c0,0,0,0,0,0c0.5,0,1-0.5,1-1
			C31,29.9,31,29.8,31,29.7z"/>
		<path d="M12.6,7.9l0.7-0.7c0.4-0.4,0.4-1,0-1.4l-2-2L9.4,1.9C8.2,0.7,6.2,0.7,5,1.9l-3,3c-1.2,1.2-1.2,3.2,0,4.5l1.9,1.9l2,2
			c0.2,0.2,0.4,0.3,0.7,0.3s0.5-0.1,0.7-0.3l0.7-0.7L12.6,7.9z"/>
	</g>
</g>
</svg>
