<svg xmlns="http://www.w3.org/2000/svg" viewBox="0 0 64 80" x="0px" y="0px"><title>40 eye see look medical health</title><path d="M60.55,31.16a31.45,31.45,0,0,0-57.1,0,2,2,0,0,0,0,1.68,31.45,31.45,0,0,0,57.1,0A2,2,0,0,0,60.55,31.16ZM43,24a5,5,0,1,1-5-5A5,5,0,0,1,43,24ZM32,47.1A27.55,27.55,0,0,1,7.49,32,27.53,27.53,0,0,1,20.1,19.65a14,14,0,1,0,23.8,0A27.53,27.53,0,0,1,56.51,32,27.55,27.55,0,0,1,32,47.1Z"/><text x="0" y="79" fill="#000000" font-size="5px" font-weight="bold" font-family="'Helvetica Neue', Helvetica, Arial-Unicode, Arial, Sans-serif">Created by Andi Nur Abdillah</text><text x="0" y="84" fill="#000000" font-size="5px" font-weight="bold" font-family="'Helvetica Neue', Helvetica, Arial-Unicode, Arial, Sans-serif">from the Noun Project</text></svg>