<?xml version="1.0" encoding="utf-8"?>
<!-- Generator: Adobe Illustrator 23.1.1, SVG Export Plug-In . SVG Version: 6.00 Build 0)  -->
<svg version="1.1" id="Capa_1" xmlns="http://www.w3.org/2000/svg" xmlns:xlink="http://www.w3.org/1999/xlink" x="0px" y="0px"
	 viewBox="0 0 100 73.1" style="enable-background:new 0 0 100 73.1;" xml:space="preserve">
<g>
	<g>
		<path d="M14.4,54.9h12.1c0.7,0,1.1-0.5,1.1-1.1V25.3c0-0.7-0.5-1.1-1.1-1.1H14.4c-0.7,0-1.1,0.5-1.1,1.1v28.5
			C13.1,54.4,13.8,54.9,14.4,54.9z"/>
	</g>
	<g>
		<path d="M34.1,54.9h12.1c0.7,0,1.1-0.5,1.1-1.1v-24c0-0.7-0.5-1.1-1.1-1.1H34.1c-0.7,0-1.1,0.5-1.1,1.1v23.9
			C32.9,54.4,33.4,54.9,34.1,54.9z"/>
	</g>
	<g>
		<path d="M53.7,54.9h12.1c0.7,0,1.1-0.5,1.1-1.1v-36c0-0.7-0.5-1.1-1.1-1.1H53.7c-0.7,0-1.1,0.5-1.1,1.1v36
			C52.6,54.4,53,54.9,53.7,54.9z"/>
	</g>
	<g>
		<path d="M73.5,54.9h12.1c0.7,0,1.1-0.5,1.1-1.1V11.2c0-0.7-0.5-1.1-1.1-1.1H73.5c-0.7,0-1.1,0.5-1.1,1.1v42.6
			C72.2,54.4,72.8,54.9,73.5,54.9z"/>
	</g>
</g>
<g>
	<path d="M95,63.4H5c-0.9,0-1.6-0.7-1.6-1.6s0.7-1.6,1.6-1.6h90c0.9,0,1.6,0.7,1.6,1.6S95.9,63.4,95,63.4z"/>
</g>
</svg>
