<?xml version="1.0" encoding="utf-8"?>
<!-- Generator: Adobe Illustrator 23.1.1, SVG Export Plug-In . SVG Version: 6.00 Build 0)  -->
<svg version="1.1" id="Capa_1" xmlns="http://www.w3.org/2000/svg" xmlns:xlink="http://www.w3.org/1999/xlink" x="0px" y="0px"
	 viewBox="0 0 64 60.2" style="enable-background:new 0 0 64 60.2;" xml:space="preserve">
<title>40 eye see look medical health</title>
<path d="M60.5,31.2c-7.3-15.8-26-22.6-41.7-15.4C12,18.9,6.6,24.4,3.5,31.2c-0.2,0.5-0.2,1.1,0,1.7c7.3,15.8,26,22.6,41.7,15.4
	c6.8-3.1,12.2-8.6,15.4-15.4C60.8,32.3,60.8,31.7,60.5,31.2z M43,24c0,2.8-2.2,5-5,5s-5-2.2-5-5s2.2-5,5-5S43,21.2,43,24z M32,47.1
	c-10.4,0-19.8-5.9-24.5-15.1c2.7-5.4,7.2-9.7,12.6-12.4c-4.1,6.6-2,15.2,4.5,19.3s15.2,2,19.3-4.5c2.8-4.5,2.8-10.2,0-14.7
	c5.4,2.6,9.9,7,12.6,12.4C51.8,41.2,42.4,47.1,32,47.1z"/>
</svg>
