<?xml version="1.0" encoding="utf-8"?>
<!-- Generator: Adobe Illustrator 23.1.1, SVG Export Plug-In . SVG Version: 6.00 Build 0)  -->
<svg version="1.1" xmlns="http://www.w3.org/2000/svg" xmlns:xlink="http://www.w3.org/1999/xlink" x="0px" y="0px"
	 viewBox="0 0 94.8 94.8" style="enable-background:new 0 0 94.8 94.8;" xml:space="preserve">
<g id="Capa_2">
</g>
<g id="Capa_1">
	<path d="M88.2,40.7H54.3V6.8C54.3,3,51.2,0,47.5,0c-3.8,0-6.8,3.1-6.8,6.8v33.8H6.8C3,40.6,0,43.7,0,47.4c0,1.9,0.8,3.6,2,4.8
		s2.9,2,4.8,2h33.8V88c0,1.9,0.8,3.6,2,4.8c1.2,1.2,2.9,2,4.8,2c3.8,0,6.8-3.1,6.8-6.8V54.3H88c3.8,0,6.8-3.1,6.8-6.8
		C95,43.7,91.9,40.7,88.2,40.7z"/>
</g>
</svg>
