<svg id="Capa_1" enable-background="new 0 0 512 512" height="512" viewBox="0 0 512 512" width="512" xmlns="http://www.w3.org/2000/svg"><g><g><path d="m451.103 129.662-195.103 240.654-195.103-240.654c-2.526-3.115-3.904-7.004-3.904-11.014v-35.154h398.015v35.154c-.001 4.01-1.379 7.899-3.905 11.014z" fill="#b16e3d"/></g><g><path d="m370.648 83.494v35.153c0 4.01-1.378 7.899-3.904 11.014l-152.924 188.628 42.18 52.027 195.104-240.654c2.526-3.115 3.904-7.004 3.904-11.014v-35.154z" fill="#985e33"/></g><g><path d="m455.007 118.648h-398.014v-93.149c0-9.941 8.059-18 18-18h362.015c9.941 0 18 8.059 18 18v93.149z" fill="#c6865c"/></g><g><path d="m437.011 7.499h-78.454c9.939 0 17.997 8.057 17.997 17.997v93.152h78.454v-93.153c-.001-9.939-8.058-17.996-17.997-17.996z" fill="#c17d4f"/></g><g><path d="m235.332 7.499h41.336v79.954h-41.336z" fill="#ffc250"/></g><g><path d="m437.011 7.499h-23.339v64.814c0 2.761-2.238 4.999-4.999 4.999h-305.345c-2.761 0-4.999-2.238-4.999-4.999v-64.814h-23.34c-9.939 0-17.997 8.057-17.997 17.997v93.152h398.015v-93.153c0-9.939-8.057-17.996-17.996-17.996z" fill="#ffc250"/></g><g><path d="m91.179 81.462v-8.538c0-9.204-7.462-16.666-16.666-16.666h-17.52v62.39h62.39v-17.52c0-9.204-7.462-16.666-16.666-16.666h-8.538c-1.657 0-3-1.343-3-3z" fill="#ffe07d"/></g><g><path d="m437.011 7.499h-23.339v64.814c0 2.761-2.238 4.999-4.999 4.999h-32.119v41.336h78.454v-93.153c-.001-9.939-8.058-17.996-17.997-17.996z" fill="#e7a52e"/></g><g><path d="m420.821 81.462v-8.538c0-9.204 7.462-16.666 16.666-16.666h17.52v62.39h-62.39v-17.52c0-9.204 7.462-16.666 16.666-16.666h8.538c1.657 0 3-1.343 3-3z" fill="#ffe07d"/></g><g><g><path d="m102.717 84.462h-1.452v6.071c0 5.522-4.476 9.998-9.998 9.998h-34.274v18.118h62.39v-17.52c0-9.206-7.462-16.667-16.666-16.667z" fill="#ffd064"/></g></g><g><path d="m436.92 56.258c-.012.012-.018.018-.03.03v34.244c0 5.522-4.476 9.998-9.998 9.998h-34.244c-.012.012-.018.018-.03.03v18.087h62.39v-62.39h-18.088z" fill="#ffd064"/></g><g><g><circle cx="256" cy="226.905" fill="#ffd064" r="36.239"/></g><g><path d="m267.972 192.7c1.312 3.749 2.034 7.775 2.034 11.972 0 20.014-16.225 36.239-36.239 36.239-4.197 0-8.223-.722-11.972-2.034 4.946 14.129 18.388 24.267 34.205 24.267 20.014 0 36.239-16.225 36.239-36.239 0-15.817-10.137-29.259-24.267-34.205z" fill="#ffc250"/></g></g><g><circle cx="173.911" cy="194.383" fill="#ffd064" r="36.239"/></g><g><path d="m185.884 160.178c1.312 3.749 2.034 7.775 2.034 11.972 0 20.014-16.225 36.239-36.239 36.239-4.197 0-8.223-.722-11.972-2.034 4.946 14.129 18.388 24.267 34.205 24.267 20.014 0 36.239-16.225 36.239-36.239-.001-15.817-10.138-29.259-24.267-34.205z" fill="#ffc250"/></g><g><circle cx="205.923" cy="238.996" fill="#ffe07d" r="36.239"/></g><g><path d="m217.895 204.791c1.312 3.749 2.034 7.775 2.034 11.972 0 20.014-16.225 36.239-36.239 36.239-4.197 0-8.223-.722-11.972-2.034 4.946 14.129 18.388 24.267 34.205 24.267 20.014 0 36.239-16.225 36.239-36.239 0-15.818-10.138-29.26-24.267-34.205z" fill="#ffd064"/></g><g><circle cx="146.108" cy="244.311" fill="#ffe07d" r="36.239"/></g><g><path d="m158.08 210.105c1.312 3.749 2.034 7.775 2.034 11.972 0 20.014-16.225 36.239-36.239 36.239-4.197 0-8.223-.722-11.972-2.034 4.946 14.129 18.388 24.267 34.205 24.267 20.014 0 36.239-16.225 36.239-36.239 0-15.817-10.137-29.259-24.267-34.205z" fill="#ffd064"/></g><g><g><circle cx="295.891" cy="248.862" fill="#ffe07d" r="36.239"/></g><g><path d="m307.863 214.656c1.312 3.749 2.034 7.775 2.034 11.972 0 20.014-16.225 36.239-36.239 36.239-4.197 0-8.223-.722-11.972-2.034 4.946 14.129 18.388 24.267 34.205 24.267 20.014 0 36.239-16.225 36.239-36.239 0-15.817-10.138-29.259-24.267-34.205z" fill="#ffd064"/></g></g><g><circle cx="352.3" cy="230.263" fill="#ffe07d" r="36.239"/></g><g><path d="m364.273 196.058c1.312 3.749 2.034 7.775 2.034 11.972 0 20.014-16.225 36.239-36.239 36.239-4.197 0-8.223-.722-11.972-2.034 4.946 14.129 18.388 24.267 34.205 24.267 20.014 0 36.239-16.225 36.239-36.239-.001-15.817-10.138-29.259-24.267-34.205z" fill="#ffd064"/></g><g><g><path d="m349.655 254.397-18.679-70.721c-.566-2.143.879-4.295 3.076-4.583l52.551-6.885c1.358-.178 2.702.414 3.488 1.536l31.498 44.974c1.288 1.839.64 4.394-1.369 5.397l-65.369 32.631c-2.086 1.042-4.601-.096-5.196-2.349z" fill="#dddaec"/></g><g><path d="m421.588 218.719-31.498-44.974c-.786-1.122-2.13-1.714-3.488-1.536l-18.051 2.365 20.661 29.501c1.288 1.839.64 4.394-1.369 5.397l-44.224 22.076 6.035 22.85c.595 2.253 3.11 3.391 5.195 2.35l65.369-32.631c2.01-1.005 2.658-3.559 1.37-5.398z" fill="#d0cee7"/></g><g><path d="m421.588 218.719-31.498-44.974c-.786-1.122-2.13-1.714-3.488-1.536l-52.551 6.885c-2.197.288-3.642 2.44-3.076 4.583l.078.296 88.968 40.242.197-.099c2.01-1.004 2.658-3.558 1.37-5.397z" fill="#f9f6f9"/></g><g><path d="m421.588 218.719-31.498-44.974c-.786-1.122-2.13-1.714-3.488-1.536l-18.051 2.365 20.661 29.501c1.288 1.839.64 4.394-1.369 5.397l-.197.099 32.376 14.644.197-.099c2.009-1.004 2.657-3.558 1.369-5.397z" fill="#dddaec"/></g></g><g><circle cx="390.573" cy="253.652" fill="#ffe07d" r="36.239"/></g><g><path d="m402.546 219.446c1.312 3.749 2.034 7.775 2.034 11.972 0 20.014-16.225 36.239-36.239 36.239-4.197 0-8.223-.722-11.972-2.034 4.946 14.129 18.388 24.267 34.205 24.267 20.014 0 36.239-16.225 36.239-36.239-.001-15.817-10.138-29.259-24.267-34.205z" fill="#ffd064"/></g><g><path d="m437.007 441.075h-362.014c-9.941 0-18-8.059-18-18v-151.709c0-9.941 8.059-18 18-18h362.015c9.941 0 18 8.059 18 18v151.709c-.001 9.941-8.06 18-18.001 18z" fill="#c6865c"/></g><g><path d="m437.011 253.366h-78.454c9.939 0 17.997 8.057 17.997 17.997v151.716c0 9.939-8.057 17.997-17.997 17.997h78.454c9.939 0 17.997-8.057 17.997-17.997v-151.717c-.001-9.939-8.058-17.996-17.997-17.996z" fill="#c17d4f"/></g><g><path d="m437.011 253.366h-359.35-2.671c-9.939 0-17.997 8.057-17.997 17.997v151.716c0 9.939 8.057 17.997 17.997 17.997h362.021c9.939 0 17.997-8.057 17.997-17.997v-151.717c-.001-9.939-8.058-17.996-17.997-17.996zm-338.682 146.373v-105.068h315.342v105.068z" fill="#ffc250"/></g><g><path d="m437.011 253.366h-78.454c9.939 0 17.997 8.057 17.997 17.997v23.309h37.118v105.068h-37.118v23.339c0 9.939-8.057 17.997-17.997 17.997h78.454c9.939 0 17.997-8.057 17.997-17.997v-151.717c-.001-9.939-8.058-17.996-17.997-17.996z" fill="#e7a52e"/></g><g><path d="m91.179 403.889v-8.538c0-9.204-7.462-16.666-16.666-16.666h-17.52v44.393c0 9.939 8.057 17.997 17.997 17.997h44.393v-17.52c0-9.204-7.462-16.666-16.666-16.666h-8.538c-1.657 0-3-1.343-3-3z" fill="#ffe07d"/></g><g><path d="m420.821 403.889v-8.538c0-9.204 7.462-16.666 16.666-16.666h17.52v44.393c0 9.939-8.057 17.997-17.997 17.997h-44.393v-17.52c0-9.204 7.462-16.666 16.666-16.666h8.538c1.657 0 3-1.343 3-3z" fill="#ffe07d"/></g><g><path d="m91.179 290.521v8.538c0 9.204-7.462 16.666-16.666 16.666h-17.52v-44.393c0-9.939 8.057-17.997 17.997-17.997h44.393v17.52c0 9.204-7.462 16.666-16.666 16.666h-8.538c-1.657 0-3 1.343-3 3z" fill="#ffe07d"/></g><g><path d="m420.821 290.521v8.538c0 9.204 7.462 16.666 16.666 16.666h17.52v-44.393c0-9.939-8.057-17.997-17.997-17.997h-44.393v17.52c0 9.204 7.462 16.666 16.666 16.666h8.538c1.657 0 3 1.343 3 3z" fill="#ffe07d"/></g><g><g><path d="m102.717 406.889h-1.548v5.975c0 5.522-4.476 9.998-9.998 9.998h-34.178v.217c0 9.939 8.057 17.997 17.997 17.997h44.393v-17.521c0-9.205-7.462-16.666-16.666-16.666z" fill="#ffd064"/></g></g><g><path d="m437.487 378.685c-.234 0-.462.025-.693.035v34.775c0 5.173-4.193 9.366-9.366 9.366h-34.775c-.01.232-.035.459-.035.693v17.521h44.393c9.939 0 17.997-8.057 17.997-17.997v-44.393z" fill="#ffd064"/></g><g><path d="m103.137 253.335v1.275c0 9.204-7.462 16.666-16.666 16.666h-8.538c-1.657 0-2.999 1.343-2.999 2.999v8.538c0 9.204-7.462 16.666-16.666 16.666h-1.275v16.245h17.521c9.204 0 16.666-7.462 16.666-16.666v-8.538c0-1.657 1.343-2.999 2.999-2.999h8.538c9.204 0 16.666-7.461 16.666-16.666v-17.52z" fill="#ffd064"/></g><g><g><path d="m437.011 253.335h-.217v34.178c0 5.522-4.476 9.998-9.998 9.998h-5.975v1.548c0 9.204 7.462 16.666 16.666 16.666h17.521v-44.393c-.001-9.94-8.058-17.997-17.997-17.997z" fill="#ffd064"/></g></g><g><path d="m212.846 253.366c5.072 9.234 7.962 19.837 7.962 31.116 0 9.133-1.896 17.822-5.311 25.7-1.136 2.621.829 5.543 3.686 5.543h73.633c2.857 0 4.822-2.922 3.686-5.543-3.414-7.878-5.311-16.567-5.311-25.7 0-11.28 2.89-21.882 7.962-31.116z" fill="#ffe07d"/></g><g><path d="m291.192 284.482c0-11.28 2.89-21.882 7.962-31.116h-24.212c-5.072 9.234-7.962 19.837-7.962 31.116 0 9.133 1.896 17.822 5.311 25.7 1.136 2.621-.829 5.543-3.686 5.543h24.212c2.857 0 4.822-2.922 3.686-5.543-3.415-7.878-5.311-16.567-5.311-25.7z" fill="#ffd064"/></g><g><circle cx="312.18" cy="423.982" fill="#ffe07d" r="36.239"/></g><g><path d="m324.153 389.777c1.312 3.749 2.034 7.775 2.034 11.972 0 20.014-16.225 36.239-36.239 36.239-4.197 0-8.223-.722-11.972-2.034 4.946 14.129 18.388 24.267 34.205 24.267 20.014 0 36.239-16.225 36.239-36.239-.001-15.818-10.138-29.26-24.267-34.205z" fill="#ffd064"/></g><g><circle cx="346.385" cy="468.263" fill="#ffe07d" r="36.239"/></g><g><path d="m358.358 434.057c1.312 3.749 2.034 7.775 2.034 11.972 0 20.014-16.225 36.239-36.239 36.239-4.197 0-8.223-.722-11.972-2.034 4.946 14.129 18.388 24.267 34.205 24.267 20.014 0 36.239-16.225 36.239-36.239 0-15.817-10.138-29.259-24.267-34.205z" fill="#ffd064"/></g><path d="m437.01 0h-362.02c-14.058 0-25.496 11.437-25.496 25.495v93.153c0 5.711 1.981 11.3 5.578 15.736l45.739 56.418c1.482 1.828 3.646 2.776 5.829 2.776 1.659 0 3.329-.548 4.718-1.674 3.217-2.608 3.711-7.33 1.102-10.547l-44.76-55.21h161.86v11.646c0 13.083 10.644 23.727 23.727 23.727h5.426c13.083 0 23.727-10.644 23.727-23.727v-11.646h161.86l-42.058 51.878-6.01-8.581c-2.397-3.423-6.458-5.211-10.604-4.67l-52.551 6.884c-3.184.417-6.037 2.187-7.827 4.853-1.79 2.667-2.345 5.976-1.525 9.08l2.527 9.567c-5.036 3.752-9.171 8.519-12.169 13.926-5.674-2.6-11.852-3.96-18.193-3.96-.646 0-1.287.021-1.926.049-7.73-13.512-22.139-22.005-37.965-22.005-13.061 0-25.087 5.674-33.33 15.429-1.65-.687-3.353-1.269-5.097-1.752.046-.82.076-1.641.076-2.462 0-24.117-19.62-43.738-43.738-43.738s-43.738 19.621-43.738 43.738c0 3.001.308 5.957.903 8.851-16.735 6.143-28.706 22.238-28.706 41.076 0 .52.03 1.038.049 1.556h-27.428c-14.058 0-25.495 11.437-25.495 25.495v151.716c0 14.058 11.437 25.495 25.495 25.495h165.696c4.141 0 7.499-3.357 7.499-7.499s-3.357-7.499-7.499-7.499h-113.805v-10.022c0-6.284-2.413-12.015-6.36-16.317h151.259c-2.147 5.161-3.338 10.815-3.338 16.744 0 20.79 14.564 38.343 34.245 42.694-.019.528-.04 1.055-.04 1.587 0 24.117 19.621 43.737 43.738 43.737s43.738-19.62 43.738-43.737c0-7.08-1.702-13.767-4.701-19.689h51.588c14.058 0 25.495-11.437 25.495-25.495v-151.714-.031c0-14.058-11.437-25.495-25.495-25.495h-3.388c-1.123-6.323-3.582-12.147-7.072-17.186 1.369-1.395 2.366-3.137 2.858-5.076.8-3.154.188-6.492-1.678-9.157l-16.54-23.616 45.738-56.416c3.596-4.437 5.577-10.025 5.577-15.736v-93.154c.001-14.058-11.437-25.495-25.495-25.495zm-51.891 433.576h-12.134c-4.969-3.82-10.777-6.594-17.097-8 .019-.532.031-1.063.031-1.595 0-5.929-1.191-11.584-3.338-16.744h38.898c-3.946 4.303-6.36 10.033-6.36 16.317zm-102.982-41.336h-176.309v-17.427h300.345v17.427h-63.949c-7.842-7.426-18.416-11.996-30.043-11.996-11.628 0-22.202 4.57-30.044 11.996zm-217.646-69.017h10.022c6.284 0 12.015-2.413 16.317-6.36v60.682c-4.303-3.946-10.033-6.36-16.317-6.36h-10.022zm125.308-77.356c.018-.519.046-1.037.046-1.556 0-8.437-2.408-16.319-6.562-23.007 5.436-6.952 13.737-11.048 22.639-11.048 15.848 0 28.74 12.893 28.74 28.741 0 2.338-.296 4.635-.845 6.871h-44.018zm97.86 14.997c-2.612 7.565-3.966 15.564-3.966 23.617 0 8.169 1.343 16.133 4 23.745h-24.195v-11.379c0-4.141-3.357-7.499-7.499-7.499-4.141 0-7.499 3.357-7.499 7.499v11.379h-24.195c2.657-7.611 4-15.576 4-23.745 0-8.054-1.354-16.052-3.966-23.617zm-181.831 75.128h142.674v4.695c0 4.141 3.357 7.499 7.499 7.499 4.141 0 7.499-3.357 7.499-7.499v-4.695h142.674v23.824h-300.346zm300.344-33.822v18.825h-106.557c1.094-.803 2.059-1.797 2.829-2.97 2.124-3.235 2.475-7.282.94-10.825-.716-1.652-1.341-3.332-1.895-5.03zm-196.615 15.855c.77 1.172 1.734 2.167 2.829 2.97h-106.558v-18.825h104.684c-.553 1.699-1.179 3.378-1.895 5.031-1.535 3.542-1.184 7.589.94 10.824zm211.613-1.161c4.303 3.946 10.033 6.36 16.317 6.36h10.022v47.963h-10.022c-6.284 0-12.015 2.413-16.317 6.36zm15.84-56c5.788 0 10.498 4.71 10.498 10.498v36.864h-10.022c-5.055 0-9.167-4.113-9.167-9.167v-8.538c0-5.788-4.71-10.498-10.498-10.498h-8.538c-5.055 0-9.167-4.113-9.167-9.167v-9.991h36.894zm-45.532 26.308h-92.72s-.067-1.79-.067-2.691c0-8.157 1.758-16.236 5.099-23.617h81.329v9.991c0 6.285 2.413 12.015 6.359 16.317zm-39.654-53.927-9.493-35.943 33.461 15.135c-10.383 3.681-18.916 11.153-23.968 20.808zm54.288-23.553-55.674-25.183 34.841-4.564zm-66.466 36.175h-11.463c-3.017-4.648-4.624-10.007-4.624-15.604 0-7.081 2.523-13.686 6.994-18.822zm-28.215 0h-44.125c1.503-14.446 13.748-25.746 28.584-25.746 4.659 0 9.176 1.128 13.249 3.25-.366 2.265-.577 4.566-.577 6.893.001 5.403.982 10.667 2.869 15.603zm-55.431-47.702c8.817 0 16.955 4.021 22.328 10.652-14.527 6.396-24.934 20.466-26.061 37.05h-3.153c.357-2.261.547-4.555.547-6.871 0-12.733-5.472-24.209-14.185-32.209 5.339-5.476 12.645-8.622 20.524-8.622zm-110.83-3.782c0-15.848 12.893-28.741 28.741-28.741s28.74 12.893 28.74 28.741c0 .337-.012.674-.024 1.011-11.392.854-21.914 6.106-29.439 14.609-7.455-5.897-16.86-9.431-27.081-9.431-.088 0-.174.006-.262.007-.443-2.02-.675-4.09-.675-6.196zm-27.803 49.928c0-15.848 12.893-28.741 28.74-28.741s28.741 12.893 28.741 28.741c0 .52-.018 1.039-.046 1.556h-57.387c-.027-.518-.048-1.036-.048-1.556zm-42.377 16.553h133.22c3.342 7.381 5.099 15.46 5.099 23.617 0 .901-.067 2.777-.067 2.691h-92.72c3.946-4.302 6.359-10.033 6.359-16.317v-1.649c0-4.141-3.357-7.499-7.499-7.499-4.141 0-7.499 3.357-7.499 7.499v1.649c0 5.055-4.113 9.167-9.167 9.167h-8.538c-5.788 0-10.498 4.71-10.498 10.498v8.538c0 5.055-4.113 9.167-9.167 9.167h-10.022v-36.864c0-5.787 4.71-10.497 10.499-10.497zm0 172.712c-5.788 0-10.498-4.71-10.498-10.498v-36.895h10.022c5.055 0 9.167 4.113 9.167 9.167v8.538c0 5.788 4.71 10.498 10.498 10.498h8.538c5.055 0 9.167 4.113 9.167 9.167v10.022h-36.894zm208.45-9.594c0-15.848 12.893-28.74 28.74-28.74s28.741 12.893 28.741 28.74c0 .301-.025.6-.035.901-15.971 2.014-29.281 12.666-35.092 27.122-12.857-2.912-22.354-14.411-22.354-28.023zm62.946 73.021c-15.848 0-28.741-12.893-28.741-28.74s12.893-28.741 28.741-28.741 28.74 12.893 28.74 28.741-12.893 28.74-28.74 28.74zm101.123-73.925c0 5.788-4.71 10.498-10.498 10.498h-36.895v-10.022c0-5.055 4.113-9.167 9.167-9.167h8.538c5.788 0 10.498-4.71 10.498-10.498v-8.538c0-5.055 4.113-9.167 9.167-9.167h10.022v36.894zm-84.623-177.211c3.367-12.176 14.445-20.956 27.687-20.956 13.232 0 24.303 8.765 27.679 20.925zm74.124-230.87c5.788 0 10.498 4.71 10.498 10.498v23.264h-10.022c-6.284 0-12.015 2.413-16.317 6.36v-40.122zm-167.841 0v54.816h-26.339v-54.816zm-157.285 96.152h-47.393v-47.393h10.022c5.055 0 9.167 4.113 9.167 9.167v8.538c0 5.788 4.71 10.498 10.498 10.498h8.538c5.055 0 9.167 4.113 9.167 9.167v10.023zm-6.056-41.336v-54.816h122.006v54.816zm-30.838-54.816h15.84v40.121c-4.303-3.946-10.033-6.36-16.317-6.36h-10.022v-23.263c0-5.788 4.71-10.498 10.499-10.498zm192.453 122.796c0 4.814-3.916 8.729-8.73 8.729h-5.426c-4.814 0-8.73-3.916-8.73-8.729v-11.646h22.885v11.646zm0-26.644h-22.885v-6.526h22.885zm3.499-21.523h-29.884c-6.34 0-11.498 5.158-11.498 11.498v10.025h-102.679v-10.022c0-6.284-2.413-12.014-6.359-16.317h208.839c4.141 0 7.499-3.357 7.499-7.499 0-4.141-3.357-7.499-7.499-7.499h-45.195v-54.815h122.006v54.816h-41.568c-4.141 0-7.499 3.357-7.499 7.499 0 4.141 3.357 7.499 7.499 7.499h26.873c-3.946 4.302-6.359 10.033-6.359 16.317v10.022h-102.678v-10.025c0-6.341-5.158-11.499-11.498-11.499zm129.174 11.501c0-5.055 4.113-9.167 9.167-9.167h8.538c5.788 0 10.498-4.71 10.498-10.498v-8.538c0-5.055 4.113-9.167 9.167-9.167h10.022v47.393h-47.393v-10.023z"/></g></svg>