<?xml version="1.0" encoding="utf-8"?>
<!-- Generator: Adobe Illustrator 23.1.1, SVG Export Plug-In . SVG Version: 6.00 Build 0)  -->
<svg version="1.1" id="Capa_1" xmlns="http://www.w3.org/2000/svg" xmlns:xlink="http://www.w3.org/1999/xlink" x="0px" y="0px"
	 viewBox="0 0 512 512" style="enable-background:new 0 0 512 512;" xml:space="preserve">
<path d="M0.3,512l47.5-108.1C16.5,360.4,0,309.3,0,255.3C0,187.1,26.6,123,75,74.8S187.6,0,256,0s132.7,26.6,181,74.8
	s75,112.3,75,180.6s-26.6,132.3-75,180.6s-112.6,74.8-181,74.8c-48.8,0-96-13.7-136.9-39.6L0.3,512z M123.3,438l6.2,4.2
	c37.4,25.2,81.1,38.6,126.5,38.6c60.4,0,117.1-23.4,159.8-66c42.7-42.6,66.2-99.2,66.2-159.4c0-60.2-23.5-116.8-66.2-159.4
	c-42.7-42.6-99.4-66-159.8-66s-117.1,23.4-159.8,66C53.5,138.5,30,195.1,30,255.3c0,50.2,16.2,97.8,46.9,137.5l5.4,7l-27,61.5
	L123.3,438z"/>
</svg>
